<?xml version="1.0" encoding="UTF-8"?>
<svg version="1.1" xmlns="http://www.w3.org/2000/svg" width="551" height="426">
<path d="M0 0 C181.83 0 363.66 0 551 0 C551 140.58 551 281.16 551 426 C369.17 426 187.34 426 0 426 C0 285.42 0 144.84 0 0 Z " fill="#FEFEFE" transform="translate(0,0)"/>
<path d="M0 0 C39.27 0 78.54 0 119 0 C119 4.95 119 9.9 119 15 C122.07376078 32.5385174 130.70700361 46.06227683 145.0546875 56.52734375 C146.01761719 57.25630859 146.01761719 57.25630859 147 58 C147.91458984 58.64388672 147.91458984 58.64388672 148.84765625 59.30078125 C150 61 150 61 149.62890625 63.765625 C149.27699219 64.91546875 148.92507813 66.0653125 148.5625 67.25 C148.17170135 68.58680906 147.78248815 69.92408222 147.39453125 71.26171875 C147.17361816 72.00470215 146.95270508 72.74768555 146.72509766 73.51318359 C145.31752572 78.34063402 144.03754438 83.20195255 142.75 88.0625 C142.48002197 89.04959961 142.21004395 90.03669922 141.93188477 91.05371094 C139.82430896 97.97934725 139.82430896 97.97934725 140 105 C142.2434452 107.92635212 144.86066833 110.37550814 147.5625 112.875 C148.98294096 114.22396406 150.40092403 115.5755211 151.81640625 116.9296875 C152.86658936 117.93080566 152.86658936 117.93080566 153.93798828 118.95214844 C156.5663683 121.56247896 158.98246765 124.31873376 161.37475586 127.14501953 C162.98992167 129.07444437 162.98992167 129.07444437 165.07151413 130.79165268 C167.42456284 133.4861753 167.49530265 134.66024644 167.48101807 138.1885376 C167.48926605 139.76181824 167.48926605 139.76181824 167.49768066 141.36688232 C167.47610901 143.08454803 167.47610901 143.08454803 167.45410156 144.83691406 C167.45468567 146.04694092 167.45526978 147.25696777 167.45587158 148.50366211 C167.45356302 151.81776067 167.43351078 155.13086129 167.40557575 158.44478321 C167.38056223 161.90942759 167.37822016 165.37408541 167.37347412 168.83880615 C167.36104412 175.39783819 167.32822245 181.95660339 167.28807616 188.51551795 C167.24335899 195.98338736 167.22137159 203.45126955 167.20129442 210.91923952 C167.15948956 226.27967383 167.08613725 241.63974061 167 257 C149.84 257 132.68 257 115 257 C109 246 109 246 109 244 C46.63 244.33 -15.74 244.66 -80 245 C-81.98 248.96 -83.96 252.92 -86 257 C-103.16 257 -120.32 257 -138 257 C-138.203529 241.00505635 -138.36915893 225.01122558 -138.46630955 209.01534462 C-138.51262664 201.58739334 -138.57571737 194.16030643 -138.67895508 186.73291016 C-138.76894383 180.2555911 -138.82678979 173.77889823 -138.84679645 167.30097139 C-138.85848399 163.87372347 -138.88574592 160.44826615 -138.95157051 157.021595 C-139.01715025 153.18601665 -139.02589193 149.35411738 -139.02172852 145.51806641 C-139.054086 144.39452759 -139.08644348 143.27098877 -139.11978149 142.11340332 C-139.02844639 134.30943778 -136.81842035 130.55690011 -131.27920437 125.09988976 C-130.52706693 124.40692614 -129.77492949 123.71396252 -129 123 C-127.81309495 121.80142595 -126.62972324 120.59931848 -125.453125 119.390625 C-124.38811116 118.34100895 -123.32047614 117.29404463 -122.25 116.25 C-114.99240412 109.94929952 -114.99240412 109.94929952 -110.58984375 101.9375 C-110.76193359 100.9784375 -110.76193359 100.9784375 -110.9375 100 C-111.07414062 99.2265625 -111.21078125 98.453125 -111.3515625 97.65625 C-112.40388029 93.34555061 -113.63493669 89.09569628 -114.90234375 84.84375 C-116.02387557 80.91639302 -116.97188693 76.98139558 -117.875 73 C-119.84985794 64.36149869 -122.17404896 55.82890131 -124.53515625 47.2890625 C-124.89226685 45.99718018 -124.89226685 45.99718018 -125.2565918 44.67919922 C-125.77811058 42.79967636 -126.30333473 40.92117957 -126.83129883 39.04345703 C-127.10095459 38.07520996 -127.37061035 37.10696289 -127.6484375 36.109375 C-127.89384277 35.23506836 -128.13924805 34.36076172 -128.39208984 33.45996094 C-129.34005184 29.62395089 -129.61198726 26.94391792 -129 23 C-127.17255372 21.06521042 -125.12237187 19.62743139 -123 18 C-122.82984375 19.24394531 -122.6596875 20.48789063 -122.484375 21.76953125 C-119.56695608 42.19762724 -113.40725877 59.03935142 -96.37109375 72 C-81.87211 81.79261785 -63.94269967 85.82076872 -46.62548828 82.55175781 C-29.17701407 78.26335752 -14.9749823 68.27455067 -5.5703125 52.90234375 C-3.15500897 48.43823797 -1.43085542 43.86219591 0 39 C0.35964844 37.78441406 0.71929687 36.56882813 1.08984375 35.31640625 C2.2845139 30.42430395 2.29359328 25.63822736 2.25 20.625 C2.25773438 19.74328125 2.26546875 18.8615625 2.2734375 17.953125 C2.27085937 17.07398438 2.26828125 16.19484375 2.265625 15.2890625 C2.26224121 14.12431396 2.26224121 14.12431396 2.25878906 12.93603516 C1.87445768 8.57568683 0.85845004 4.29225019 0 0 Z " fill="#054566" transform="translate(268,157)"/>
<path d="M0 0 C39.27 0 78.54 0 119 0 C119 4.95 119 9.9 119 15 C122.07376078 32.5385174 130.70700361 46.06227683 145.0546875 56.52734375 C146.01761719 57.25630859 146.01761719 57.25630859 147 58 C147.91458984 58.64388672 147.91458984 58.64388672 148.84765625 59.30078125 C150 61 150 61 149.62890625 63.765625 C149.27699219 64.91546875 148.92507813 66.0653125 148.5625 67.25 C148.17170135 68.58680906 147.78248815 69.92408222 147.39453125 71.26171875 C147.17361816 72.00470215 146.95270508 72.74768555 146.72509766 73.51318359 C145.31752572 78.34063402 144.03754438 83.20195255 142.75 88.0625 C142.48002197 89.04959961 142.21004395 90.03669922 141.93188477 91.05371094 C139.82430896 97.97934725 139.82430896 97.97934725 140 105 C142.2434452 107.92635212 144.86066833 110.37550814 147.5625 112.875 C148.98294096 114.22396406 150.40092403 115.5755211 151.81640625 116.9296875 C152.86658936 117.93080566 152.86658936 117.93080566 153.93798828 118.95214844 C156.5663683 121.56247896 158.98246765 124.31873376 161.37475586 127.14501953 C162.99026837 129.07443548 162.99026837 129.07443548 165.07151413 130.79402542 C167.41773171 133.47783889 167.49536425 134.63575924 167.48101807 138.15057373 C167.48926605 139.71123314 167.48926605 139.71123314 167.49768066 141.30342102 C167.47610901 143.00706062 167.47610901 143.00706062 167.45410156 144.74511719 C167.45468567 145.94539047 167.45526978 147.14566376 167.45587158 148.38230896 C167.45356318 151.66943003 167.4335109 154.95586896 167.40557575 158.24285412 C167.3805614 161.67947103 167.37822009 165.11610151 167.37347412 168.55279541 C167.36104437 175.05870455 167.32822303 181.56434466 167.28807616 188.07013535 C167.24335823 195.47754611 167.2213714 202.88496975 167.20129442 210.2924819 C167.15949018 225.52847705 167.08913844 240.76420382 167 256 C166.67 256 166.34 256 166 256 C166 215.74 166 175.48 166 134 C110.23 134 54.46 134 -3 134 C-4.98 130.04 -6.96 126.08 -9 122 C-13.48514654 114.87653197 -21.20384969 111.59871677 -29 109 C-40.52876673 108.16967331 -48.92680109 109.54417873 -57.92578125 116.97265625 C-62.957962 121.8911154 -65.876985 127.75397001 -69 134 C-91.44 134 -113.88 134 -137 134 C-137 174.26 -137 214.52 -137 256 C-137.33 256 -137.66 256 -138 256 C-138.21068365 240.13572303 -138.3691631 224.27182658 -138.46630955 208.40649605 C-138.51262531 201.03907499 -138.57571332 193.67252549 -138.67895508 186.30566406 C-138.76894811 179.88108266 -138.82679076 173.45713266 -138.84679645 167.03193843 C-138.85848332 163.63262962 -138.88574049 160.23512628 -138.95157051 156.83639908 C-139.01715707 153.03194517 -139.02589169 149.23120009 -139.02172852 145.42626953 C-139.054086 144.31208145 -139.08644348 143.19789337 -139.11978149 142.04994202 C-139.02805634 134.27503162 -136.79232726 130.54023929 -131.27920437 125.10311699 C-130.52706693 124.40908838 -129.77492949 123.71505978 -129 123 C-127.81320333 121.80131864 -126.62985641 120.59918884 -125.453125 119.390625 C-124.38811116 118.34100895 -123.32047614 117.29404463 -122.25 116.25 C-114.99240412 109.94929952 -114.99240412 109.94929952 -110.58984375 101.9375 C-110.76193359 100.9784375 -110.76193359 100.9784375 -110.9375 100 C-111.07414062 99.2265625 -111.21078125 98.453125 -111.3515625 97.65625 C-112.40388029 93.34555061 -113.63493669 89.09569628 -114.90234375 84.84375 C-116.02387557 80.91639302 -116.97188693 76.98139558 -117.875 73 C-119.84985794 64.36149869 -122.17404896 55.82890131 -124.53515625 47.2890625 C-124.89226685 45.99718018 -124.89226685 45.99718018 -125.2565918 44.67919922 C-125.77811058 42.79967636 -126.30333473 40.92117957 -126.83129883 39.04345703 C-127.10095459 38.07520996 -127.37061035 37.10696289 -127.6484375 36.109375 C-127.89384277 35.23506836 -128.13924805 34.36076172 -128.39208984 33.45996094 C-129.34005184 29.62395089 -129.61198726 26.94391792 -129 23 C-127.17255372 21.06521042 -125.12237187 19.62743139 -123 18 C-122.82984375 19.24394531 -122.6596875 20.48789063 -122.484375 21.76953125 C-119.56695608 42.19762724 -113.40725877 59.03935142 -96.37109375 72 C-81.87211 81.79261785 -63.94269967 85.82076872 -46.62548828 82.55175781 C-29.17701407 78.26335752 -14.9749823 68.27455067 -5.5703125 52.90234375 C-3.15500897 48.43823797 -1.43085542 43.86219591 0 39 C0.35964844 37.78441406 0.71929687 36.56882813 1.08984375 35.31640625 C2.2845139 30.42430395 2.29359328 25.63822736 2.25 20.625 C2.25773438 19.74328125 2.26546875 18.8615625 2.2734375 17.953125 C2.27085937 17.07398438 2.26828125 16.19484375 2.265625 15.2890625 C2.26224121 14.12431396 2.26224121 14.12431396 2.25878906 12.93603516 C1.87445768 8.57568683 0.85845004 4.29225019 0 0 Z " fill="#012C52" transform="translate(268,157)"/>
<path d="M0 0 C0.97324219 0.31710938 1.94648438 0.63421875 2.94921875 0.9609375 C19.32783136 6.99854372 31.04785634 19.2976756 38.5 34.8125 C44.84213713 49.0638721 45.28013472 66.11734739 40.24609375 80.87109375 C39.83488281 81.90363281 39.42367187 82.93617188 39 84 C38.59910156 85.02222656 38.19820313 86.04445313 37.78515625 87.09765625 C32.45468946 99.07189325 23.18602559 108.31474902 12 115 C11.35804688 115.38542969 10.71609375 115.77085937 10.0546875 116.16796875 C8.07246458 117.25031223 6.09032569 118.14403184 4 119 C3.09121094 119.37253906 2.18242187 119.74507813 1.24609375 120.12890625 C-14.30421717 125.71456236 -32.03773307 124.16749067 -47.01953125 117.5390625 C-63.17174971 109.19833632 -74.60771201 95.77789343 -80.375 78.625 C-82.42223038 71.25497064 -83.51604026 63.62948302 -84 56 C-83.505 55.505 -83.505 55.505 -83 55 C-82.72400493 53.23303157 -82.48003085 51.46103785 -82.25 49.6875 C-79.60658568 33.40252422 -70.55455482 18.98027316 -57.4375 9.0625 C-50.71626543 4.52957436 -43.66281675 1.57438463 -36 -1 C-35.32710937 -1.2475 -34.65421875 -1.495 -33.9609375 -1.75 C-23.27364343 -5.13980252 -10.38717162 -3.49554613 0 0 Z " fill="#FCC851" transform="translate(228,118)"/>
<path d="M0 0 C1.175625 0.8971875 1.175625 0.8971875 2.375 1.8125 C2.375 2.4725 2.375 3.1325 2.375 3.8125 C2.95378906 4.0496875 3.53257812 4.286875 4.12890625 4.53125 C11.59249196 8.78873889 16.0816003 18.18633871 19.375 25.8125 C19.68308594 26.52535156 19.99117188 27.23820312 20.30859375 27.97265625 C26.16211891 42.5084436 23.67958697 57.87440059 18.08984375 72.078125 C14.68807896 79.46914598 10.14631519 85.12275817 4.375 90.8125 C3.52808594 91.67488281 3.52808594 91.67488281 2.6640625 92.5546875 C-9.21391528 103.73736902 -24.52749887 106.45696759 -40.171875 106.0234375 C-55.63944263 105.37521164 -67.86587924 98.87159625 -78.625 87.8125 C-79.17414063 87.29558594 -79.72328125 86.77867187 -80.2890625 86.24609375 C-89.39784516 76.91811579 -94.46108677 62.85241887 -94.875 50.0625 C-94.39417651 30.94976613 -88.31879741 16.187837 -74.625 2.8125 C-52.47602656 -16.1072063 -23.67101051 -14.8426616 0 0 Z " fill="#FCC851" transform="translate(480.625,117.1875)"/>
<path d="M0 0 C11.41874959 9.09599152 19.80627656 19.46813479 23 34 C24.66397521 50.23105647 22.01124409 64.67369233 11.89453125 77.83203125 C3.60307207 87.32019588 -8.05968402 95.98874521 -21 97 C-38.13454025 97.9825341 -52.3230728 95.62603592 -65.8125 84.125 C-73.3483429 77.00557623 -77.42433149 69.7164905 -81 60 C-81.36867188 59.06542969 -81.73734375 58.13085938 -82.1171875 57.16796875 C-83.22550022 53.19079346 -83.38374877 49.54854772 -83.375 45.4375 C-83.37338867 44.64682129 -83.37177734 43.85614258 -83.37011719 43.04150391 C-83.22216454 35.87450349 -81.69624607 29.65074031 -79 23 C-78.74605469 22.28972656 -78.49210937 21.57945313 -78.23046875 20.84765625 C-72.54486213 7.15178611 -58.97305281 -1.6095404 -45.89453125 -7.01953125 C-31.4987791 -11.89582516 -12.28281521 -9.07358342 0 0 Z " fill="#FEC951" transform="translate(363,38)"/>
<path d="M0 0 C0.73089844 0.3403125 1.46179688 0.680625 2.21484375 1.03125 C13.83444683 6.91057053 21.39130934 15.70216356 26.09765625 27.828125 C29.97775698 40.46101109 28.26912278 52.94837213 22.375 64.6875 C15.91281296 75.6416951 6.2978528 82.97448878 -5.9453125 86.5715332 C-19.10484995 89.31570956 -32.75811856 87.07111941 -44.06640625 80.11328125 C-53.25870239 73.49140081 -60.34777959 63.66963888 -62.71875 52.453125 C-64.44045014 37.43607376 -62.19291425 24.82521478 -53.1640625 12.4921875 C-40.76227466 -1.79001582 -17.55114442 -8.79330064 0 0 Z " fill="#FDC850" transform="translate(114,100)"/>
<path d="M0 0 C2.29577413 1.68645052 4.34732427 3.458275 6.40625 5.42578125 C7.11523438 6.09480469 7.82421875 6.76382812 8.5546875 7.453125 C17.60083102 16.75148442 20.88894578 28.24245784 20.74609375 41.00390625 C19.3888045 54.67040493 12.88555164 65.24312749 2.43359375 73.9296875 C-0.73784489 76.27007478 -3.94059875 77.96180969 -7.59375 79.42578125 C-8.31949219 79.72484375 -9.04523438 80.02390625 -9.79296875 80.33203125 C-20.76009838 84.24756844 -32.05247443 83.59881324 -42.65625 78.97265625 C-53.83451386 73.08623007 -63.02376227 63.31762226 -67.34375 51.34765625 C-70.32943612 40.15133328 -69.58169749 28.03304243 -64.19921875 17.765625 C-62.74078598 15.25859754 -61.20527637 12.83659014 -59.59375 10.42578125 C-59.01625 9.53890625 -58.43875 8.65203125 -57.84375 7.73828125 C-42.30070377 -8.23651627 -19.1307274 -11.61096859 0 0 Z " fill="#FCC851" transform="translate(247.59375,17.57421875)"/>
<path d="M0 0 C47.31433467 -3.30100009 47.31433467 -3.30100009 59.38427734 6.9140625 C70.02303528 16.89421406 70.96929251 28.20010163 71.5652771 42.31062317 C71.83528527 55.92473401 70.73031144 69.36751985 70 83 C46.9 83 23.8 83 0 83 C0 55.61 0 28.22 0 0 Z " fill="#FAC851" transform="translate(173,137)"/>
<path d="M0 0 C8.40217487 5.57165497 16.36516006 13.14393436 19.69921875 22.8984375 C22.16551803 35.44023848 19.9900048 46.76646025 13.203125 57.4609375 C10.47149807 61.21989369 7.8204473 63.67492841 3.890625 66.1484375 C2.98699219 66.72980469 2.08335937 67.31117188 1.15234375 67.91015625 C-7.86763617 72.65311258 -19.80777601 73.12320969 -29.6875 70.7734375 C-31.90823274 69.84166153 -33.79734371 68.79950107 -35.796875 67.4609375 C-36.83521484 66.80738281 -36.83521484 66.80738281 -37.89453125 66.140625 C-46.64994652 60.15093904 -52.70857308 50.90244709 -54.796875 40.4609375 C-55.73826793 29.29094833 -53.61417717 19.75221979 -46.8125 10.75 C-43.52618022 7.01786165 -39.96590646 4.15224719 -35.796875 1.4609375 C-35.1678125 1.02652344 -34.53875 0.59210938 -33.890625 0.14453125 C-24.87200024 -4.99107452 -9.18123242 -4.52641179 0 0 Z " fill="#F7C652" transform="translate(353.796875,200.5390625)"/>
<path d="M0 0 C0.94770264 -0.00100708 1.89540527 -0.00201416 2.87182617 -0.00305176 C72.64890986 0.04688553 72.64890986 0.04688553 93.5625 17.25 C96.5625 20.53125 96.5625 20.53125 96.5625 23.25 C34.1925 23.25 -28.1775 23.25 -92.4375 23.25 C-91.11443584 17.95774335 -88.93802796 16.16520008 -84.4375 13.25 C-72.25696024 7.47600246 -59.18916783 5.00948064 -45.9375 3.125 C-44.80441406 2.95613281 -43.67132813 2.78726562 -42.50390625 2.61328125 C-28.30057862 0.54704687 -14.33053777 0.01058018 0 0 Z " fill="#002B51" transform="translate(280.4375,377.75)"/>
<path d="M0 0 C1.8569751 -0.00472824 1.8569751 -0.00472824 3.75146484 -0.009552 C5.11295609 -0.00776222 6.47444701 -0.00571127 7.8359375 -0.00341797 C9.22216814 -0.00409106 10.60839867 -0.00506113 11.99462891 -0.00631714 C14.90333172 -0.00779387 17.81200387 -0.00564037 20.72070312 -0.00097656 C24.45690348 0.00472073 28.19303202 0.00144159 31.92922974 -0.00454903 C34.79273016 -0.00815532 37.65621343 -0.00701574 40.51971436 -0.00442123 C41.89768482 -0.00375215 43.27565682 -0.00457973 44.65362549 -0.00690079 C46.57637504 -0.00942839 48.49913002 -0.0048957 50.421875 0 C52.06615479 0.00119339 52.06615479 0.00119339 53.74365234 0.00241089 C56.2109375 0.12939453 56.2109375 0.12939453 57.2109375 1.12939453 C57.25157582 2.79556568 57.2536585 4.46327548 57.2109375 6.12939453 C56.5509375 6.12939453 55.8909375 6.12939453 55.2109375 6.12939453 C55.2109375 20.64939453 55.2109375 35.16939453 55.2109375 50.12939453 C49.2709375 50.45939453 43.3309375 50.78939453 37.2109375 51.12939453 C38.8609375 53.10939453 40.5109375 55.08939453 42.2109375 57.12939453 C42.0234375 59.50439453 42.0234375 59.50439453 41.2109375 61.12939453 C37.69004525 59.71208621 36.53746925 58.27107632 34.7109375 55.00439453 C32.73817048 52.28057408 31.67713194 51.27647559 28.4375 50.25439453 C24.97217896 49.97507394 22.53496953 50.07924342 19.2109375 51.12939453 C15.87661211 54.0762448 13.51317585 57.33747255 11.2109375 61.12939453 C9.7259375 60.63439453 9.7259375 60.63439453 8.2109375 60.12939453 C9.52896115 56.47948288 10.80307758 54.33987443 13.2109375 51.12939453 C7.2709375 50.79939453 1.3309375 50.46939453 -4.7890625 50.12939453 C-4.7890625 35.60939453 -4.7890625 21.08939453 -4.7890625 6.12939453 C-5.4490625 6.12939453 -6.1090625 6.12939453 -6.7890625 6.12939453 C-6.8317835 4.46327548 -6.82970082 2.79556568 -6.7890625 1.12939453 C-5.00989783 -0.64977014 -2.40592951 0.00174618 0 0 Z " fill="#F6C752" transform="translate(307.7890625,53.87060546875)"/>
<path d="M0 0 C39.27 0 78.54 0 119 0 C119 4.95 119 9.9 119 15 C119.495 19.95 119.495 19.95 120 25 C81.39 25 42.78 25 3 25 C2.67 20.05 2.34 15.1 2 10 C1.34 6.7 0.68 3.4 0 0 Z " fill="#0B4868" transform="translate(268,157)"/>
<path d="M0 0 C-0.10441406 0.72445312 -0.20882812 1.44890625 -0.31640625 2.1953125 C-0.58067942 5.34142166 -0.65017391 7.90211256 0 11 C2.65049293 13.73315938 5.57117799 15.38763727 9 17 C-1.47306765 25.12441633 -1.47306765 25.12441633 -7.546875 24.91015625 C-9.77946011 24.41037821 -11.85748094 23.79742018 -14 23 C-14.99 22.67 -15.98 22.34 -17 22 C-17 22.99 -17 23.98 -17 25 C-15.68 25 -14.36 25 -13 25 C-12.47754509 31.13884522 -13.73225098 35.74484807 -17 41 C-21.15031801 45.6223921 -25.5825681 48.55219858 -31.83203125 49.37109375 C-38.94444446 49.52956167 -43.60259731 48.78377686 -49 44 C-54.04093052 39.07510113 -56.28269961 34.23001975 -56.375 27.1875 C-56.25197633 21.61726177 -55.53771971 17.40010014 -52 13 C-45.65571992 7.16632596 -40.6576238 5.6485792 -32.09375 5.7109375 C-27.52446524 6.13786562 -24.81938186 7.47776669 -21 10 C-20.505 11.485 -20.505 11.485 -20 13 C-20.33 13.66 -20.66 14.32 -21 15 C-21.66 15 -22.32 15 -23 15 C-22.505 15.99 -22.505 15.99 -22 17 C-19.59438065 14.85354958 -18.63930045 13.21250193 -17.625 10.1875 C-15.09035548 4.74606077 -10.17471573 3.26032934 -4.8984375 1.03125 C-2 0 -2 0 0 0 Z " fill="#F4C653" transform="translate(479,138)"/>
<path d="M0 0 C47.31433467 -3.30100009 47.31433467 -3.30100009 59.38427734 6.9140625 C70.02303528 16.89421406 70.96929251 28.20010163 71.5652771 42.31062317 C71.83528527 55.92473401 70.73031144 69.36751985 70 83 C46.9 83 23.8 83 0 83 C0 55.61 0 28.22 0 0 Z M4 3 C4 28.08 4 53.16 4 79 C24.79 79 45.58 79 67 79 C67 61.84 67 44.68 67 27 C59.08 27 51.16 27 43 27 C43 19.08 43 11.16 43 3 C30.13 3 17.26 3 4 3 Z " fill="#0376B2" transform="translate(173,137)"/>
<path d="M0 0 C6.37346153 4.90588816 10.34929417 11.89881461 11.90625 19.68359375 C-9.54375 19.68359375 -30.99375 19.68359375 -53.09375 19.68359375 C-51.67929035 11.19683582 -47.67233993 5.32517884 -40.95703125 -0.03515625 C-27.88547488 -9.02356398 -13.3483492 -8.39252552 0 0 Z " fill="#FCC750" transform="translate(253.09375,271.31640625)"/>
<path d="M0 0 C2.62214852 1.49971804 4.6763347 3.02993594 7 5 C7 5.66 7 6.32 7 7 C4.7438536 8.42053662 3.43956094 9.03663008 0.75 8.8125 C-2 8 -2 8 -5.5625 6.4375 C-12.75649345 3.71434994 -20.29767959 3.83959385 -27.3125 7 C-34.03811217 10.83857286 -39.21440645 16.40605092 -41.56640625 23.87109375 C-43.05168221 31.16366493 -42.38429832 38.33941288 -39 45 C-34.25634216 52.06528932 -28.32011289 56.2311571 -20 58 C-11.94542108 58.70654201 -5.01386817 56.4432241 1.875 52.25 C6.51147605 47.34079006 8.953536 42.73827459 10.375 36.125 C11.51098361 31.32198158 11.51098361 31.32198158 13.73828125 29.85546875 C15.6875 29.3125 15.6875 29.3125 19 29 C19.71273093 38.44368486 16.69070735 46.89727333 10.68359375 54.22265625 C3.46092672 61.84751355 -5.44962858 66.09001147 -16 66.5 C-26.28418733 66.0615269 -33.48167381 62.4879825 -40.8359375 55.3671875 C-48.40144063 47.09156494 -50.55691808 38.79603322 -50.37890625 27.640625 C-49.4859924 19.06128783 -45.64795884 10.63850739 -39 5 C-27.03709882 -3.41110996 -13.77725038 -6.11786993 0 0 Z " fill="#0476B2" transform="translate(460,134)"/>
<path d="M0 0 C13.53 0 27.06 0 41 0 C41 18 41 18 38 23 C33.28539398 26.14307068 28.26358241 25.41001233 22.71313477 25.42553711 C20.70493151 25.43739705 18.6970684 25.48709063 16.68945312 25.53710938 C14.77616211 25.54774414 14.77616211 25.54774414 12.82421875 25.55859375 C11.65979248 25.57204834 10.49536621 25.58550293 9.2956543 25.59936523 C6 25 6 25 0 20 C0 13.4 0 6.8 0 0 Z " fill="#5A738D" transform="translate(262,291)"/>
<path d="M0 0 C0.76828125 -0.020625 1.5365625 -0.04125 2.328125 -0.0625 C5.73398293 -0.08606995 8.03307171 -0.05249963 11.1015625 1.515625 C13.71769891 4.49399568 13.75010806 7.7348715 13.72265625 11.578125 C13.71943359 12.37734375 13.71621094 13.1765625 13.71289062 14 C13.70451172 14.825 13.69613281 15.65 13.6875 16.5 C13.68298828 17.34046875 13.67847656 18.1809375 13.67382812 19.046875 C13.66207961 21.11461401 13.64414522 23.18231624 13.625 25.25 C6.52678571 19.22321429 6.52678571 19.22321429 3.625 16.25 C4.09618159 20.56081025 6.63530188 22.49880768 9.6875 25.375 C11.36827151 26.9638359 13.02332072 28.58146296 14.625 30.25 C14.625 30.91 14.625 31.57 14.625 32.25 C15.285 32.25 15.945 32.25 16.625 32.25 C16.51468914 28.04114753 16.38416008 23.83315446 16.25 19.625 C16.2190625 18.43519531 16.188125 17.24539062 16.15625 16.01953125 C16.11757812 14.86582031 16.07890625 13.71210938 16.0390625 12.5234375 C15.99193115 10.93668213 15.99193115 10.93668213 15.94384766 9.31787109 C15.60504312 6.05798001 14.76889417 3.31242545 13.625 0.25 C15.10406892 0.22310784 16.58327483 0.20365379 18.0625 0.1875 C18.88621094 0.17589844 19.70992187 0.16429687 20.55859375 0.15234375 C22.625 0.25 22.625 0.25 23.625 1.25 C23.72582764 3.68660446 23.76472603 6.09424701 23.7578125 8.53125 C23.75876923 9.25993286 23.75972595 9.98861572 23.76071167 10.73937988 C23.76139335 12.2827971 23.75953988 13.82621717 23.75537109 15.36962891 C23.75002262 17.739974 23.75531642 20.11012959 23.76171875 22.48046875 C23.76105797 23.97656292 23.7597768 25.47265697 23.7578125 26.96875 C23.75983673 27.68228638 23.76186096 28.39582275 23.76394653 29.13098145 C23.73995191 34.13504809 23.73995191 34.13504809 22.625 35.25 C19.85752818 35.45785733 17.14589342 35.57462012 14.375 35.625 C13.61058594 35.66238281 12.84617188 35.69976562 12.05859375 35.73828125 C7.86052002 35.80353628 6.1181848 35.61536989 2.640625 33.0390625 C-1.01169981 27.98526422 -0.50774988 22.98439387 -0.4375 16.9375 C-0.43298828 16.19693359 -0.42847656 15.45636719 -0.42382812 14.69335938 C-0.41212175 12.87887101 -0.39418898 11.06442466 -0.375 9.25 C0.7305189 10.18590504 1.83435453 11.12379858 2.9375 12.0625 C3.55238281 12.58457031 4.16726562 13.10664063 4.80078125 13.64453125 C6.47924679 15.12172469 8.06382034 16.65039131 9.625 18.25 C9.15090352 13.93269587 6.59103297 11.91352539 3.5625 9 C2.64339844 8.10796875 1.72429687 7.2159375 0.77734375 6.296875 C0.06707031 5.62140625 -0.64320313 4.9459375 -1.375 4.25 C-1.40396822 8.68748635 -1.42178788 13.12494847 -1.4375 17.5625 C-1.44587891 18.82513672 -1.45425781 20.08777344 -1.46289062 21.38867188 C-1.46611328 22.59716797 -1.46933594 23.80566406 -1.47265625 25.05078125 C-1.47789307 26.16622314 -1.48312988 27.28166504 -1.48852539 28.4309082 C-1.50249254 31.33052062 -1.50249254 31.33052062 -0.375 34.25 C-1.85406892 34.27689216 -3.33327483 34.29634621 -4.8125 34.3125 C-5.63621094 34.32410156 -6.45992187 34.33570313 -7.30859375 34.34765625 C-9.375 34.25 -9.375 34.25 -10.375 33.25 C-10.4633967 30.8743148 -10.49030305 28.52791326 -10.47265625 26.15234375 C-10.4712413 25.44348526 -10.46982635 24.73462677 -10.46836853 24.00428772 C-10.46275443 21.73198288 -10.45019963 19.45977525 -10.4375 17.1875 C-10.43248681 15.65039204 -10.42792359 14.11328255 -10.42382812 12.57617188 C-10.41278042 8.80074358 -10.39550641 5.02538829 -10.375 1.25 C-7.12028133 -0.37735933 -3.57280619 0.02373958 0 0 Z " fill="#0276B2" transform="translate(201.375,172.75)"/>
<path d="M0 0 C0.66 1.32 1.32 2.64 2 4 C0.35 5.65 -1.3 7.3 -3 9 C-2.5359375 9.8971875 -2.5359375 9.8971875 -2.0625 10.8125 C-1 13 -1 13 0 16 C-0.33 16.66 -0.66 17.32 -1 18 C-0.195625 17.195625 0.60875 16.39125 1.4375 15.5625 C2.625 14.375 3.8125 13.1875 5 12 C5.0825 10.9275 5.165 9.855 5.25 8.75 C6.1549092 4.22545401 7.30476603 2.70983824 11 0 C14.3125 -0.3125 14.3125 -0.3125 17 0 C16.37240135 2.92879371 15.41377341 5.36095629 14 8 C14.66 8.66 15.32 9.32 16 10 C18.9628331 9.60495559 21.38326241 8.40182371 24 7 C24.75 9.1875 24.75 9.1875 25 12 C23.625 14.6875 23.625 14.6875 21 17 C19.67314776 17.20609598 18.33759911 17.35891458 17 17.4765625 C9.43872932 19.00542309 4.93314797 25.72265216 0.00585938 31.21313477 C-1.32503755 32.68278578 -2.68178475 34.12889601 -4.0390625 35.57421875 C-4.82490723 36.44651123 -5.61075195 37.31880371 -6.42041016 38.2175293 C-9 40 -9 40 -12.81005859 39.77661133 C-13.86273926 39.52032959 -14.91541992 39.26404785 -16 39 C-16.45458013 35.0253378 -16.35467555 33.46461189 -13.8828125 30.2265625 C-12.51769531 28.93878906 -12.51769531 28.93878906 -11.125 27.625 C-9.76761719 26.31402344 -9.76761719 26.31402344 -8.3828125 24.9765625 C-6 23 -6 23 -4 23 C-4 22.34 -4 21.68 -4 21 C-4.763125 20.87625 -5.52625 20.7525 -6.3125 20.625 C-9 20 -9 20 -12 18 C-12.4125 18.515625 -12.825 19.03125 -13.25 19.5625 C-15 21 -15 21 -16.875 21 C-19.98776873 19.53516766 -21.83990361 17.6538327 -24 15 C-24 12.37380444 -23.42225295 11.44144627 -21.625 9.5625 C-21.08875 9.046875 -20.5525 8.53125 -20 8 C-19.2884375 6.7315625 -19.2884375 6.7315625 -18.5625 5.4375 C-16.81394468 2.7097537 -16.03265194 2.01088398 -13 1 C-8.62301522 0.18944726 -4.44653514 -0.10845208 0 0 Z " fill="#F8C550" transform="translate(283,326)"/>
<path d="M0 0 C1.8569751 -0.00472824 1.8569751 -0.00472824 3.75146484 -0.009552 C5.11295609 -0.00776222 6.47444701 -0.00571127 7.8359375 -0.00341797 C9.22216814 -0.00409106 10.60839867 -0.00506113 11.99462891 -0.00631714 C14.90333172 -0.00779387 17.81200387 -0.00564037 20.72070312 -0.00097656 C24.45690348 0.00472073 28.19303202 0.00144159 31.92922974 -0.00454903 C34.79273016 -0.00815532 37.65621343 -0.00701574 40.51971436 -0.00442123 C41.89768482 -0.00375215 43.27565682 -0.00457973 44.65362549 -0.00690079 C46.57637504 -0.00942839 48.49913002 -0.0048957 50.421875 0 C52.06615479 0.00119339 52.06615479 0.00119339 53.74365234 0.00241089 C56.2109375 0.12939453 56.2109375 0.12939453 57.2109375 1.12939453 C57.25157582 2.79556568 57.2536585 4.46327548 57.2109375 6.12939453 C56.5509375 6.12939453 55.8909375 6.12939453 55.2109375 6.12939453 C55.2109375 20.64939453 55.2109375 35.16939453 55.2109375 50.12939453 C49.2709375 50.45939453 43.3309375 50.78939453 37.2109375 51.12939453 C38.8609375 53.10939453 40.5109375 55.08939453 42.2109375 57.12939453 C42.0234375 59.50439453 42.0234375 59.50439453 41.2109375 61.12939453 C37.69004525 59.71208621 36.53746925 58.27107632 34.7109375 55.00439453 C32.73817048 52.28057408 31.67713194 51.27647559 28.4375 50.25439453 C24.97217896 49.97507394 22.53496953 50.07924342 19.2109375 51.12939453 C15.87661211 54.0762448 13.51317585 57.33747255 11.2109375 61.12939453 C9.7259375 60.63439453 9.7259375 60.63439453 8.2109375 60.12939453 C9.52896115 56.47948288 10.80307758 54.33987443 13.2109375 51.12939453 C7.2709375 50.79939453 1.3309375 50.46939453 -4.7890625 50.12939453 C-4.7890625 35.60939453 -4.7890625 21.08939453 -4.7890625 6.12939453 C-5.4490625 6.12939453 -6.1090625 6.12939453 -6.7890625 6.12939453 C-6.8317835 4.46327548 -6.82970082 2.79556568 -6.7890625 1.12939453 C-5.00989783 -0.64977014 -2.40592951 0.00174618 0 0 Z M-1.7890625 6.12939453 C-1.7890625 19.98939453 -1.7890625 33.84939453 -1.7890625 48.12939453 C16.0309375 48.12939453 33.8509375 48.12939453 52.2109375 48.12939453 C52.2109375 34.26939453 52.2109375 20.40939453 52.2109375 6.12939453 C34.3909375 6.12939453 16.5709375 6.12939453 -1.7890625 6.12939453 Z " fill="#117DAA" transform="translate(307.7890625,53.87060546875)"/>
<path d="M0 0 C3.3125 2.1875 3.3125 2.1875 4.3125 5.1875 C3.125 6.75 3.125 6.75 1.3125 8.1875 C-1.36229327 7.92654456 -3.28845141 7.3870243 -5.6875 6.1875 C-10.36220792 5.61718563 -13.81066498 5.74908249 -18.0625 7.875 C-21.36242133 10.78207355 -23.33619724 12.84548162 -24.00390625 17.296875 C-24.21613269 21.37709937 -23.85951795 23.83023195 -22.0625 27.5625 C-19.32185042 30.59163901 -17.58699563 31.93671838 -13.6875 33.1875 C-8.29252242 33.33047644 -4.04948358 32.50577464 0.3125 29.1875 C1.75879043 26.50217169 1.75879043 26.50217169 2.625 23.5 C2.95113281 22.50613281 3.27726562 21.51226562 3.61328125 20.48828125 C3.84402344 19.72902344 4.07476562 18.96976563 4.3125 18.1875 C6.6225 17.8575 8.9325 17.5275 11.3125 17.1875 C11.83495491 23.32634522 10.58024902 27.93234807 7.3125 33.1875 C3.16218199 37.8098921 -1.2700681 40.73969858 -7.51953125 41.55859375 C-14.63194446 41.71706167 -19.29009731 40.97127686 -24.6875 36.1875 C-29.72843052 31.26260113 -31.97019961 26.41751975 -32.0625 19.375 C-31.93947633 13.80476177 -31.22521971 9.58760014 -27.6875 5.1875 C-19.91243775 -1.96180271 -10.00947252 -4.75087283 0 0 Z " fill="#0576B2" transform="translate(454.6875,145.8125)"/>
<path d="M0 0 C3.95215917 2.08793315 6.63625364 4.21936822 9 8 C9.73159293 12.41107503 9.64283639 16.61790176 7.75 20.6875 C7.1725 21.450625 6.595 22.21375 6 23 C5.25678387 24.26266827 4.52815071 25.53400657 3.8125 26.8125 C3.214375 27.864375 2.61625 28.91625 2 30 C-2.05497802 30.34429059 -5.95644928 30.52906271 -10 30 C-12.5625 27.25 -12.5625 27.25 -14 24 C-14.556875 23.278125 -15.11375 22.55625 -15.6875 21.8125 C-18.40412594 18.06096893 -18.3801227 14.48544787 -18 10 C-14.20740363 2.56067635 -8.38630418 -1.67391301 0 0 Z " fill="#0F7AAE" transform="translate(341,219)"/>
<path d="M0 0 C0 11.55 0 23.1 0 35 C-8 32 -16 29 -24 26 C-24 20.39 -24 14.78 -24 9 C-7 0 -7 0 0 0 Z " fill="#0175B4" transform="translate(114,122)"/>
<path d="M0 0 C-0.10441406 0.72445312 -0.20882812 1.44890625 -0.31640625 2.1953125 C-0.58067942 5.34142166 -0.65017391 7.90211256 0 11 C2.65049293 13.73315938 5.57117799 15.38763727 9 17 C4.62571803 20.37018543 0.33670386 23.39825071 -5 25 C-7.79296875 24.62890625 -7.79296875 24.62890625 -10.6875 23.875 C-17.23077672 22.31546254 -21.17167311 24.32337712 -26.83666992 27.40966797 C-30.40848906 29.35478932 -32.90316231 30.45088536 -37 30 C-37.33 28.68 -37.66 27.36 -38 26 C-33.71067418 23.1843811 -29.54933045 20.80097455 -24.8125 18.8125 C-20.67750847 16.8386974 -19.35178462 15.30579056 -17.6875 11.0625 C-15.6414472 6.06684553 -13.17737263 4.61582207 -8.3125 2.375 C-2.51933702 0 -2.51933702 0 0 0 Z " fill="#0476B2" transform="translate(479,138)"/>
<path d="M0 0 C3.6196875 0.061875 3.6196875 0.061875 7.3125 0.125 C7.3125 5.735 7.3125 11.345 7.3125 17.125 C6.6525 17.125 5.9925 17.125 5.3125 17.125 C6.4775536 22.75609239 7.92340584 26.38026817 11.3125 31.125 C11.3125 31.785 11.3125 32.445 11.3125 33.125 C7.0225 33.125 2.7325 33.125 -1.6875 33.125 C-3.79876943 28.90246115 -3.9046997 26.98498477 -3.8125 22.375 C-3.79445313 21.20453125 -3.77640625 20.0340625 -3.7578125 18.828125 C-3.73460938 17.93609375 -3.71140625 17.0440625 -3.6875 16.125 C-4.863125 15.9084375 -4.863125 15.9084375 -6.0625 15.6875 C-8.6875 15.125 -8.6875 15.125 -10.6875 14.125 C-10.76832094 12.16733719 -10.82660778 10.20873272 -10.875 8.25 C-10.90980469 7.15945312 -10.94460937 6.06890625 -10.98046875 4.9453125 C-10.88378906 4.01460937 -10.78710938 3.08390625 -10.6875 2.125 C-7.00352884 -0.33098077 -4.24026192 -0.1021532 0 0 Z " fill="#0576B3" transform="translate(81.6875,130.875)"/>
<path d="M0 0 C6.36519623 0.174878 6.36519623 0.174878 9.56030273 2.18774414 C11.10160459 4.27922199 12.11246228 6.25059031 13.11108398 8.64477539 C13.89200699 9.94296573 14.68290758 11.23523401 15.48608398 12.51977539 C17.11108398 15.64477539 17.11108398 15.64477539 17.11108398 17.64477539 C6.88108398 17.64477539 -3.34891602 17.64477539 -13.88891602 17.64477539 C-13.88891602 0.10408014 -13.88891602 0.10408014 0 0 Z " fill="#5C748D" transform="translate(284.888916015625,164.355224609375)"/>
<path d="M0 0 C0.33 0 0.66 0 1 0 C1 13.86 1 27.72 1 42 C19.15 42 37.3 42 56 42 C56 28.47 56 14.94 56 1 C56.33 1 56.66 1 57 1 C57 15.19 57 29.38 57 44 C48.585 44.495 48.585 44.495 40 45 C41.65 46.98 43.3 48.96 45 51 C44.8125 53.375 44.8125 53.375 44 55 C40.47910775 53.58269168 39.32653175 52.14168179 37.5 48.875 C35.52723298 46.15117955 34.46619444 45.14708106 31.2265625 44.125 C27.76124146 43.84567941 25.32403203 43.94984889 22 45 C18.66567461 47.94685027 16.30223835 51.20807802 14 55 C13.01 54.67 12.02 54.34 11 54 C12.31802365 50.35008834 13.59214008 48.2104799 16 45 C10.39 44.67 4.78 44.34 -1 44 C-1.02464513 37.8944529 -1.04283371 31.78893449 -1.05493164 25.68334961 C-1.05997288 23.60456844 -1.06680574 21.52579084 -1.07543945 19.44702148 C-1.08751422 16.46597414 -1.09323024 13.48497351 -1.09765625 10.50390625 C-1.10539818 9.10078941 -1.10539818 9.10078941 -1.11329651 7.66932678 C-1.11337204 6.80850998 -1.11344757 5.94769318 -1.11352539 5.06079102 C-1.115746 4.29912125 -1.11796661 3.53745148 -1.12025452 2.75270081 C-1 1 -1 1 0 0 Z " fill="#0275B4" transform="translate(305,60)"/>
<path d="M0 0 C20.79 0.33 41.58 0.66 63 1 C63.495 3.475 63.495 3.475 64 6 C42.55 6 21.1 6 -1 6 C-0.67 4.02 -0.34 2.04 0 0 Z " fill="#D3A249" transform="translate(201,285)"/>
<path d="M0 0 C4.11952267 0.19160571 5.74982341 0.77701652 8.875 3.5625 C11.1529846 6.64665448 11.73366511 9.23079623 11.5 13.03515625 C10.5960421 16.5874283 8.59890985 18.46296895 6 21 C2.77755226 22.61122387 -0.50603954 22.4537611 -4 22 C-7.4375 20.4375 -7.4375 20.4375 -10 18 C-10.875 14.25 -10.875 14.25 -11 11 C-7.37 11 -3.74 11 0 11 C0 7.37 0 3.74 0 0 Z " fill="#0376B2" transform="translate(324,71)"/>
<path d="M0 0 C2.97 0 5.94 0 9 0 C8.01 0.495 8.01 0.495 7 1 C7.11031086 5.20885247 7.24083992 9.41684554 7.375 13.625 C7.4059375 14.81480469 7.436875 16.00460938 7.46875 17.23046875 C7.50742188 18.38417969 7.54609375 19.53789062 7.5859375 20.7265625 C7.6173584 21.78439941 7.6487793 22.84223633 7.68115234 23.93212891 C8.01995688 27.19201999 8.85610583 29.93757455 10 33 C8.52093108 33.02689216 7.04172517 33.04634621 5.5625 33.0625 C4.73878906 33.07410156 3.91507813 33.08570313 3.06640625 33.09765625 C1 33 1 33 0 32 C-0.0883967 29.6243148 -0.11530305 27.27791326 -0.09765625 24.90234375 C-0.0962413 24.19348526 -0.09482635 23.48462677 -0.09336853 22.75428772 C-0.08775443 20.48198288 -0.07519963 18.20977525 -0.0625 15.9375 C-0.05748681 14.40039204 -0.05292359 12.86328255 -0.04882812 11.32617188 C-0.03778042 7.55074358 -0.02050641 3.77538829 0 0 Z " fill="#0075B4" transform="translate(191,174)"/>
<path d="M0 0 C0.33 0.66 0.66 1.32 1 2 C1.886875 1.649375 2.77375 1.29875 3.6875 0.9375 C7.12732732 -0.03603604 8.68877985 -0.25289411 12 1 C13.8125 2.8125 13.8125 2.8125 15 5 C15 6.32 15 7.64 15 9 C7.41 9 -0.18 9 -8 9 C-7 3 -7 3 -5.6875 1.125 C-4 0 -4 0 0 0 Z " fill="#157CAC" transform="translate(220,40)"/>
<path d="M0 0 C0.33 0 0.66 0 1 0 C1 3.3 1 6.6 1 10 C2.98 10.495 2.98 10.495 5 11 C7.578125 13.1796875 7.578125 13.1796875 10.25 15.875 C11.14203125 16.75929687 12.0340625 17.64359375 12.953125 18.5546875 C15 21 15 21 15 24 C17.64 24.33 20.28 24.66 23 25 C23 25.33 23 25.66 23 26 C20.26916098 26.13548815 17.54508193 26.23429855 14.8125 26.3125 C14.04357422 26.35439453 13.27464844 26.39628906 12.48242188 26.43945312 C8.26200766 26.53001995 6.51347364 26.37923216 3.01171875 23.79296875 C-0.63242373 18.73362531 -0.13276034 13.73529394 -0.0625 7.6875 C-0.05798828 6.94693359 -0.05347656 6.20636719 -0.04882812 5.44335938 C-0.03712175 3.62887101 -0.01918898 1.81442466 0 0 Z " fill="#197EA9" transform="translate(201,182)"/>
<path d="M0 0 C4.61363999 2.30682 7.81482617 4.9509023 11 9 C11.5625 11.8125 11.5625 11.8125 11 14 C9 16 9 16 6.1796875 16.40625 C2.0852335 15.88312566 0.88099097 14.50653561 -1.875 11.5 C-3.04675781 10.24703125 -3.04675781 10.24703125 -4.2421875 8.96875 C-4.82226562 8.3190625 -5.40234375 7.669375 -6 7 C-4.02 4.69 -2.04 2.38 0 0 Z " fill="#F6C451" transform="translate(291,350)"/>
<path d="M0 0 C3.40524375 0.68104875 4.52547983 1.6479153 6.5 4.5 C7.0625 8 7.0625 8 6.5 11.5 C4.3125 14 4.3125 14 1.5 15.5 C-1.36321294 15.43182826 -2.89807715 14.87360729 -5.3125 13.375 C-7.22950563 10.34814901 -6.92793633 7.9846244 -6.5 4.5 C-4.52547983 1.6479153 -3.40524375 0.68104875 0 0 Z " fill="#0878B0" transform="translate(223.5,23.5)"/>
<path d="M0 0 C2.89006581 1.69417651 3.04476264 3.16412969 3.9375 6.4375 C4 10 4 10 2.4375 12.4375 C-0.67639606 14.43358722 -2.35995978 14.5308392 -6 14 C-8.375 12.9375 -8.375 12.9375 -10 11 C-10.57491549 7.04745604 -10.61372366 4.92058549 -8.375 1.5625 C-5.31881548 -0.44814771 -3.59350675 -0.53520313 0 0 Z " fill="#0777B2" transform="translate(246,53)"/>
<path d="M0 0 C1.20462891 0.16048828 1.20462891 0.16048828 2.43359375 0.32421875 C3.64208984 0.47310547 3.64208984 0.47310547 4.875 0.625 C6.87109375 1.01171875 6.87109375 1.01171875 7.87109375 2.01171875 C8.20109375 1.35171875 8.53109375 0.69171875 8.87109375 0.01171875 C11.74609375 0.32421875 11.74609375 0.32421875 14.87109375 1.01171875 C16.87109375 4.01171875 16.87109375 4.01171875 16.87109375 8.01171875 C9.28109375 8.01171875 1.69109375 8.01171875 -6.12890625 8.01171875 C-3.46469056 0.01907169 -3.46469056 0.01907169 0 0 Z " fill="#0676B3" transform="translate(237.12890625,68.98828125)"/>
<path d="M0 0 C2.92500695 2.61711148 3.8791678 4.24479874 4.5 8.125 C4 11 4 11 2.375 12.875 C-0.70693454 14.33486373 -2.62526031 14.49214954 -6 14 C-8.4375 12.4375 -8.4375 12.4375 -10 10 C-9.93866496 6.5039028 -9.65265114 4.06485186 -7.8125 1.0625 C-5.00906675 -0.58089191 -3.1812472 -0.5193873 0 0 Z " fill="#0576B2" transform="translate(207,53)"/>
<path d="M0 0 C0.33 0.66 0.66 1.32 1 2 C4.59245682 1.31351935 4.59245682 1.31351935 8.0625 0.1875 C10 0 10 0 12.1875 1.6875 C14 4 14 4 15 8 C7.41 8 -0.18 8 -8 8 C-7.67 6.02 -7.34 4.04 -7 2 C-4 0 -4 0 0 0 Z " fill="#0375B4" transform="translate(201,69)"/>
<path d="M0 0 C0 3.63 0 7.26 0 11 C-2.52475462 12.26237731 -4.31200466 12.09856404 -7.125 12.0625 C-8.03507812 12.05347656 -8.94515625 12.04445313 -9.8828125 12.03515625 C-10.58148438 12.02355469 -11.28015625 12.01195313 -12 12 C-11.125 6.25 -11.125 6.25 -10 4 C-9.34 4 -8.68 4 -8 4 C-8 3.34 -8 2.68 -8 2 C-5.09399739 0.74335022 -3.20395416 0 0 0 Z " fill="#137FA8" transform="translate(323,69)"/>
<path d="M0 0 C3.96 0 7.92 0 12 0 C12 6 12 6 10.3125 8.375 C8 10 8 10 5.4375 10.4375 C3 10 3 10 1.1875 8.9375 C-0.60842137 6.00731249 -0.18977574 3.3527047 0 0 Z " fill="#0979AF" transform="translate(331,250)"/>
<path d="M0 0 C-2.297221 1.74271938 -4.59866729 3.39911152 -7 5 C-7.36297936 6.97747122 -7.36297936 6.97747122 -7.1875 9.125 C-7.125625 10.40375 -7.06375 11.6825 -7 13 C-2.17639811 13.19294408 1.49646738 12.75747614 6 11 C3.25 15.875 3.25 15.875 1 17 C-2.98558966 17.37599902 -5.32579625 17.36641508 -8.875 15.4375 C-11.66605308 12.23599794 -12 10.21894271 -12 6 C-9.1434258 -0.25725777 -6.55504912 -0.1213898 0 0 Z " fill="#0978B0" transform="translate(447,157)"/>
<path d="M0 0 C0.33 0 0.66 0 1 0 C1 8.58 1 17.16 1 26 C0.34 26 -0.32 26 -1 26 C-2.55078125 24.42578125 -2.55078125 24.42578125 -4.3125 22.3125 C-6.43655718 19.78767731 -8.54086947 17.44737434 -11 15.25 C-11.66 14.5075 -12.32 13.765 -13 13 C-12.67 11.68 -12.34 10.36 -12 9 C-9.03 11.97 -6.06 14.94 -3 18 C-2.67 14.04 -2.34 10.08 -2 6 C-1.67 6 -1.34 6 -1 6 C-0.67 4.02 -0.34 2.04 0 0 Z " fill="#D3BC60" transform="translate(217,179)"/>
<path d="M0 0 C5.28 0 10.56 0 16 0 C16 1.32 16 2.64 16 4 C10.72 4 5.44 4 0 4 C0 2.68 0 1.36 0 0 Z " fill="#2582A4" transform="translate(339,79)"/>
<path d="M0 0 C0.66 0.33 1.32 0.66 2 1 C2 1.66 2 2.32 2 3 C0.7625 3.7115625 0.7625 3.7115625 -0.5 4.4375 C-1.7375 5.2109375 -1.7375 5.2109375 -3 6 C-3 6.99 -3 7.98 -3 9 C1.455 8.505 1.455 8.505 6 8 C6 8.99 6 9.98 6 11 C3.1528258 12.93607846 1.84582804 12.98954766 -1.6875 12.75 C-2.780625 12.5025 -3.87375 12.255 -5 12 C-6.455276 9.08944799 -6.45067148 7.21908202 -6 4 C-3 1.625 -3 1.625 0 0 Z " fill="#E5C457" transform="translate(445,158)"/>
<path d="M0 0 C0.99 0 1.98 0 3 0 C3 2.31 3 4.62 3 7 C5.475 7.99 5.475 7.99 8 9 C8 9.99 8 10.98 8 12 C7.2575 11.649375 6.515 11.29875 5.75 10.9375 C2.77299356 9.92261144 1.87632105 9.97936995 -1 11 C-2.33333333 11.33333333 -3.66666667 11.66666667 -5 12 C-4.67 10.68 -4.34 9.36 -4 8 C-2.68 7.67 -1.36 7.34 0 7 C0 4.69 0 2.38 0 0 Z " fill="#0878B0" transform="translate(222,52)"/>
<path d="M0 0 C1.98 0.99 1.98 0.99 4 2 C5.64037855 8.78023134 5.64037855 8.78023134 3.6875 12.5 C2 14 2 14 0 14 C0 9.38 0 4.76 0 0 Z " fill="#0A7BAD" transform="translate(116,132)"/>
<path d="M0 0 C1.0725 0.928125 2.145 1.85625 3.25 2.8125 C5.76901275 4.9738436 8.30455361 7.0592786 11 9 C11.33 8.01 11.66 7.02 12 6 C12 8.64 12 11.28 12 14 C10.87411986 13.04270084 9.7493285 12.08412105 8.625 11.125 C7.99851563 10.59132812 7.37203125 10.05765625 6.7265625 9.5078125 C5.44163349 8.38567993 4.20628025 7.20628025 3 6 C2.67 6.99 2.34 7.98 2 9 C1.34 9 0.68 9 0 9 C0 6.03 0 3.06 0 0 Z " fill="#0071B8" transform="translate(202,183)"/>
<path d="M0 0 C5.28 0 10.56 0 16 0 C16 0.99 16 1.98 16 3 C10.72 3 5.44 3 0 3 C0 2.01 0 1.02 0 0 Z " fill="#0075B4" transform="translate(339,86)"/>
<path d="M0 0 C5.28 0 10.56 0 16 0 C16 0.99 16 1.98 16 3 C10.72 3 5.44 3 0 3 C0 2.01 0 1.02 0 0 Z " fill="#0076B1" transform="translate(339,73)"/>
<path d="M0 0 C0.66 0.66 1.32 1.32 2 2 C4.10820797 1.6814823 4.10820797 1.6814823 6 1 C6 2.32 6 3.64 6 5 C5.34 5 4.68 5 4 5 C4 5.66 4 6.32 4 7 C2.68 6.67 1.36 6.34 0 6 C0 4.02 0 2.04 0 0 Z " fill="#A89858" transform="translate(267,359)"/>
<path d="M0 0 C0 2.31 0 4.62 0 7 C-1.98 7 -3.96 7 -6 7 C-2.86206897 0 -2.86206897 0 0 0 Z " fill="#114B6C" transform="translate(145,175)"/>
<path d="M0 0 C2 3.75 2 3.75 2 6 C2.66 6.33 3.32 6.66 4 7 C3.01 7.66 2.02 8.32 1 9 C-0.5 7.625 -0.5 7.625 -2 6 C-2 5.34 -2 4.68 -2 4 C-1.34 4 -0.68 4 0 4 C0 2.68 0 1.36 0 0 Z " fill="#157EA9" transform="translate(438,164)"/>
<path d="M0 0 C0.66 0.33 1.32 0.66 2 1 C2 1.66 2 2.32 2 3 C0.02 3.99 -1.96 4.98 -4 6 C-4.66 5.34 -5.32 4.68 -6 4 C-4.02 2.68 -2.04 1.36 0 0 Z " fill="#DBBF5C" transform="translate(445,158)"/>
<path d="M0 0 C2.375 0.3125 2.375 0.3125 5 1 C5.66 1.99 6.32 2.98 7 4 C4.69 4 2.38 4 0 4 C0 2.68 0 1.36 0 0 Z " fill="#0072B7" transform="translate(312,76)"/>
<path d="M0 0 C0.66 1.32 1.32 2.64 2 4 C-0.475 5.485 -0.475 5.485 -3 7 C-3 6.34 -3 5.68 -3 5 C-3.66 4.67 -4.32 4.34 -5 4 C-5.33 3.34 -5.66 2.68 -6 2 C-4.02 1.34 -2.04 0.68 0 0 Z " fill="#D3BB61" transform="translate(208,65)"/>
<path d="M0 0 C1.98 0 3.96 0 6 0 C6 0.99 6 1.98 6 3 C4.02 3 2.04 3 0 3 C0 2.01 0 1.02 0 0 Z " fill="#31879E" transform="translate(314,231)"/>
<path d="M0 0 C0.99 0 1.98 0 3 0 C3 1.98 3 3.96 3 6 C2.01 6 1.02 6 0 6 C0 4.02 0 2.04 0 0 Z " fill="#2D869F" transform="translate(335,210)"/>
</svg>
