<?xml version="1.0" encoding="UTF-8"?>
<!DOCTYPE svg PUBLIC "-//W3C//DTD SVG 1.1//EN" "http://www.w3.org/Graphics/SVG/1.1/DTD/svg11.dtd">
<svg xmlns="http://www.w3.org/2000/svg" version="1.1" width="551px" height="426px" style="shape-rendering:geometricPrecision; text-rendering:geometricPrecision; image-rendering:optimizeQuality; fill-rule:evenodd; clip-rule:evenodd" xmlns:xlink="http://www.w3.org/1999/xlink">
<g><path style="opacity:1" fill="#fefefe" d="M -0.5,-0.5 C 183.167,-0.5 366.833,-0.5 550.5,-0.5C 550.5,141.5 550.5,283.5 550.5,425.5C 366.833,425.5 183.167,425.5 -0.5,425.5C -0.5,283.5 -0.5,141.5 -0.5,-0.5 Z"/></g>
<g><path style="opacity:1" fill="#fdc951" d="M 215.5,10.5 C 234.698,8.94711 249.864,15.9471 261,31.5C 272.085,53.6527 268.585,73.1527 250.5,90C 225.18,105.892 203.347,102.058 185,78.5C 173.11,53.8974 177.944,33.3974 199.5,17C 204.76,14.3107 210.094,12.1441 215.5,10.5 Z"/></g>
<g><path style="opacity:1" fill="#1977b1" d="M 220.5,23.5 C 227.632,23.8021 230.465,27.4688 229,34.5C 225,39.8333 221,39.8333 217,34.5C 215.663,29.8721 216.83,26.2054 220.5,23.5 Z"/></g>
<g><path style="opacity:1" fill="#fec951" d="M 325.5,28.5 C 356.529,27.5784 376.362,41.9117 385,71.5C 387.881,104.606 373.381,125.439 341.5,134C 309.394,136.536 288.894,122.37 280,91.5C 277.551,57.7197 292.717,36.7197 325.5,28.5 Z"/></g>
<g><path style="opacity:1" fill="#317bad" d="M 215.5,39.5 C 218.238,38.9648 220.072,39.9648 221,42.5C 221.953,40.4078 223.286,40.0745 225,41.5C 227.854,38.9836 230.521,39.3169 233,42.5C 234.128,44.3453 234.628,46.3453 234.5,48.5C 226.833,48.5 219.167,48.5 211.5,48.5C 211.482,44.8707 212.816,41.8707 215.5,39.5 Z"/></g>
<g><path style="opacity:1" fill="#1075b3" d="M 200.5,52.5 C 208.288,52.2855 211.288,55.9522 209.5,63.5C 204.418,67.931 200.085,67.2644 196.5,61.5C 196.854,57.9873 198.187,54.9873 200.5,52.5 Z"/></g>
<g><path style="opacity:1" fill="#1776b3" d="M 239.5,52.5 C 245.947,51.9438 249.28,54.9438 249.5,61.5C 245.915,67.2644 241.582,67.931 236.5,63.5C 234.663,58.9644 235.663,55.2977 239.5,52.5 Z"/></g>
<g><path style="opacity:1" fill="#1978b0" d="M 364.5,59.5 C 363.5,59.5 362.5,59.5 361.5,59.5C 361.5,74.1667 361.5,88.8333 361.5,103.5C 355.491,103.334 349.491,103.501 343.5,104C 346.35,106.786 348.184,109.953 349,113.5C 348.586,113.957 348.086,114.291 347.5,114.5C 344.342,111.172 341.342,107.672 338.5,104C 334.5,103.333 330.5,103.333 326.5,104C 323.658,107.672 320.658,111.172 317.5,114.5C 316.5,114.167 315.833,113.5 315.5,112.5C 317.306,109.528 319.306,106.695 321.5,104C 315.175,103.5 308.842,103.334 302.5,103.5C 303.086,87.9021 302.42,72.4021 300.5,57C 300.585,55.8926 300.919,54.8926 301.5,54C 322.167,53.3333 342.833,53.3333 363.5,54C 364.406,55.6995 364.739,57.5328 364.5,59.5 Z"/></g>
<g><path style="opacity:1" fill="#1876b2" d="M 221.5,51.5 C 222.5,51.5 223.5,51.5 224.5,51.5C 224.192,53.924 224.526,56.2573 225.5,58.5C 227.053,59.439 228.387,60.6057 229.5,62C 229.167,62.5 228.833,63 228.5,63.5C 226.571,62.6198 224.737,61.6198 223,60.5C 221.263,61.6198 219.429,62.6198 217.5,63.5C 216.216,60.7369 217.216,59.0703 220.5,58.5C 221.474,56.2573 221.808,53.924 221.5,51.5 Z"/></g>
<g><path style="opacity:1" fill="#f8c752" d="M 305.5,59.5 C 323.5,59.5 341.5,59.5 359.5,59.5C 359.5,73.5 359.5,87.5 359.5,101.5C 341.5,101.5 323.5,101.5 305.5,101.5C 305.5,87.5 305.5,73.5 305.5,59.5 Z"/></g>
<g><path style="opacity:1" fill="#409291" d="M 364.5,59.5 C 362.867,74.1003 361.867,88.7669 361.5,103.5C 361.5,88.8333 361.5,74.1667 361.5,59.5C 362.5,59.5 363.5,59.5 364.5,59.5 Z"/></g>
<g><path style="opacity:1" fill="#1075b4" d="M 215.5,76.5 C 207.648,76.8254 199.982,76.492 192.5,75.5C 192.494,70.6694 194.827,68.5027 199.5,69C 200.333,69.8333 201.167,70.6667 202,71.5C 203,67.5 204,67.5 205,71.5C 210.756,67.4533 214.256,69.12 215.5,76.5 Z"/></g>
<g><path style="opacity:1" fill="#1d76b3" d="M 253.5,75.5 C 246.018,76.492 238.352,76.8254 230.5,76.5C 230.618,72.3863 232.618,69.7196 236.5,68.5C 238.029,68.5288 239.196,69.1955 240,70.5C 241.563,67.9557 243.063,67.9557 244.5,70.5C 249.705,67.6536 252.705,69.3202 253.5,75.5 Z"/></g>
<g><path style="opacity:1" fill="#207aae" d="M 322.5,69.5 C 322.665,72.8499 322.498,76.1832 322,79.5C 320.16,78.1669 319.66,78.3335 320.5,80C 317.518,80.498 314.518,80.6646 311.5,80.5C 310.28,78.9504 310.28,77.2837 311.5,75.5C 313.226,75.8146 314.893,75.9813 316.5,76C 314.937,75.2411 313.937,74.0744 313.5,72.5C 314.64,71.1986 315.973,70.0319 317.5,69C 319.387,68.2204 321.054,68.3871 322.5,69.5 Z"/></g>
<g><path style="opacity:1" fill="#0f76b3" d="M 324.5,70.5 C 333.698,72.8954 336.531,78.5621 333,87.5C 327.026,93.7861 320.693,94.1194 314,88.5C 312.991,86.9751 312.491,85.3084 312.5,83.5C 315.684,81.5864 319.351,80.9197 323.5,81.5C 323.185,77.6286 323.518,73.9619 324.5,70.5 Z"/></g>
<g><path style="opacity:1" fill="#0177b0" d="M 338.5,72.5 C 343.833,72.5 349.167,72.5 354.5,72.5C 354.5,73.5 354.5,74.5 354.5,75.5C 349.167,75.5 343.833,75.5 338.5,75.5C 338.5,74.5 338.5,73.5 338.5,72.5 Z"/></g>
<g><path style="opacity:1" fill="#799e83" d="M 313.5,72.5 C 313.937,74.0744 314.937,75.2411 316.5,76C 314.893,75.9813 313.226,75.8146 311.5,75.5C 311.932,74.2905 312.599,73.2905 313.5,72.5 Z"/></g>
<g><path style="opacity:1" fill="#a8ad72" d="M 192.5,75.5 C 199.982,76.492 207.648,76.8254 215.5,76.5C 207.657,77.8204 199.657,77.8204 191.5,76.5C 191.624,75.8933 191.957,75.56 192.5,75.5 Z"/></g>
<g><path style="opacity:1" fill="#aaad72" d="M 253.5,75.5 C 254.043,75.56 254.376,75.8933 254.5,76.5C 246.343,77.8204 238.343,77.8204 230.5,76.5C 238.352,76.8254 246.018,76.492 253.5,75.5 Z"/></g>
<g><path style="opacity:1" fill="#357ea8" d="M 338.5,78.5 C 343.833,78.5 349.167,78.5 354.5,78.5C 354.5,79.8333 354.5,81.1667 354.5,82.5C 349.167,82.5 343.833,82.5 338.5,82.5C 338.5,81.1667 338.5,79.8333 338.5,78.5 Z"/></g>
<g><path style="opacity:1" fill="#95a879" d="M 322.5,69.5 C 323.492,69.3284 324.158,69.6618 324.5,70.5C 323.518,73.9619 323.185,77.6286 323.5,81.5C 319.351,80.9197 315.684,81.5864 312.5,83.5C 311.596,82.791 311.263,81.791 311.5,80.5C 314.518,80.6646 317.518,80.498 320.5,80C 319.66,78.3335 320.16,78.1669 322,79.5C 322.498,76.1832 322.665,72.8499 322.5,69.5 Z"/></g>
<g><path style="opacity:1" fill="#0374b5" d="M 338.5,85.5 C 343.833,85.5 349.167,85.5 354.5,85.5C 354.5,86.5 354.5,87.5 354.5,88.5C 349.167,88.5 343.833,88.5 338.5,88.5C 338.5,87.5 338.5,86.5 338.5,85.5 Z"/></g>
<g><path style="opacity:1" fill="#fec950" d="M 86.5,96.5 C 113.229,94.1019 131.062,105.435 140,130.5C 144.001,157.662 133.168,176.162 107.5,186C 80.43,190.386 61.93,179.886 52,154.5C 46.8645,125.085 58.3645,105.752 86.5,96.5 Z"/></g>
<g><path style="opacity:1" fill="#fec851" d="M 416.5,216.5 C 402.739,208.402 393.405,196.736 388.5,181.5C 386.198,173.681 385.198,165.681 385.5,157.5C 386.167,157.5 386.5,157.167 386.5,156.5C 391.547,128.285 408.214,111.452 436.5,106C 463.453,103.725 483.62,114.225 497,137.5C 508.728,165.861 503.228,190.361 480.5,211C 465.761,221.433 449.428,225.1 431.5,222C 426.361,220.455 421.361,218.621 416.5,216.5 Z"/></g>
<g><path style="opacity:1" fill="#fcc851" d="M 267.5,156.5 C 267.328,157.492 267.662,158.158 268.5,158.5C 268.294,161.495 268.96,164.162 270.5,166.5C 270.5,171.5 270.5,176.5 270.5,181.5C 266.795,213.042 249.462,232.542 218.5,240C 185.9,243.287 162.733,230.12 149,200.5C 146.463,191.844 144.63,183.177 143.5,174.5C 150.74,134.429 174.74,114.596 215.5,115C 240.425,119.435 257.758,133.268 267.5,156.5 Z"/></g>
<g><path style="opacity:1" fill="#0a75b4" d="M 112.5,121.5 C 113.495,132.988 113.828,144.655 113.5,156.5C 105.648,153.105 97.6481,150.105 89.5,147.5C 89.3339,141.824 89.5006,136.157 90,130.5C 97.2281,126.813 104.728,123.813 112.5,121.5 Z"/></g>
<g><path style="opacity:1" fill="#0774b5" d="M 87.5,130.5 C 87.7857,136.259 87.4524,141.925 86.5,147.5C 86.5475,153.264 88.5475,158.264 92.5,162.5C 88.2047,163.661 83.8713,163.828 79.5,163C 78.8742,162.25 78.3742,161.416 78,160.5C 77.5008,155.845 77.3342,151.179 77.5,146.5C 75.0637,146.683 72.897,146.016 71,144.5C 70.1735,140.459 70.3401,136.459 71.5,132.5C 72.3081,132.192 72.9747,131.692 73.5,131C 78.1548,130.501 82.8215,130.334 87.5,130.5 Z"/></g>
<g><path style="opacity:1" fill="#7ca182" d="M 87.5,130.5 C 88.1644,133.146 88.4978,135.979 88.5,139C 88.4809,142.252 87.8142,145.085 86.5,147.5C 87.4524,141.925 87.7857,136.259 87.5,130.5 Z"/></g>
<g><path style="opacity:1" fill="#1276b3" d="M 464.5,141.5 C 463.183,141.821 461.849,142.154 460.5,142.5C 442.019,132.828 427.852,137.161 418,155.5C 414.08,176.657 422.747,188.99 444,192.5C 460.957,190.713 469.79,181.379 470.5,164.5C 473.327,164.416 475.994,163.75 478.5,162.5C 475.952,190.108 460.952,201.942 433.5,198C 415.231,190.637 407.398,177.137 410,157.5C 414.789,140.935 425.789,131.935 443,130.5C 452.355,129.769 460.188,132.769 466.5,139.5C 465.757,140.182 465.091,140.849 464.5,141.5 Z"/></g>
<g><path style="opacity:1" fill="#abad72" d="M 112.5,121.5 C 112.56,120.957 112.893,120.624 113.5,120.5C 114.825,132.66 114.825,144.66 113.5,156.5C 113.828,144.655 113.495,132.988 112.5,121.5 Z"/></g>
<g><path style="opacity:1" fill="#2179ae" d="M 115.5,131.5 C 120.364,134.275 121.531,138.275 119,143.5C 118.311,144.357 117.478,145.023 116.5,145.5C 115.507,140.88 115.173,136.214 115.5,131.5 Z"/></g>
<g><path style="opacity:1" fill="#0d75b4" d="M 173.5,136.5 C 188.504,136.333 203.504,136.5 218.5,137C 226.333,144.833 234.167,152.667 242,160.5C 242.5,179.83 242.667,199.164 242.5,218.5C 219.5,218.5 196.5,218.5 173.5,218.5C 173.5,191.167 173.5,163.833 173.5,136.5 Z"/></g>
<g><path style="opacity:1" fill="#f5c653" d="M 464.5,141.5 C 465.492,141.328 466.158,141.662 466.5,142.5C 465.279,143.028 464.113,143.695 463,144.5C 461.901,147.864 460.401,151.03 458.5,154C 453.167,156.667 447.833,159.333 442.5,162C 439.471,166.656 440.804,168.323 446.5,167C 452,164.5 457.5,162 463,159.5C 466,160.5 469,161.5 472,162.5C 473.303,162.022 474.469,161.355 475.5,160.5C 476.5,161.167 477.5,161.833 478.5,162.5C 475.994,163.75 473.327,164.416 470.5,164.5C 469.79,181.379 460.957,190.713 444,192.5C 422.747,188.99 414.08,176.657 418,155.5C 427.852,137.161 442.019,132.828 460.5,142.5C 461.849,142.154 463.183,141.821 464.5,141.5 Z"/></g>
<g><path style="opacity:1" fill="#1476b3" d="M 475.5,160.5 C 474.469,161.355 473.303,162.022 472,162.5C 469,161.5 466,160.5 463,159.5C 457.5,162 452,164.5 446.5,167C 440.804,168.323 439.471,166.656 442.5,162C 447.833,159.333 453.167,156.667 458.5,154C 460.401,151.03 461.901,147.864 463,144.5C 464.113,143.695 465.279,143.028 466.5,142.5C 470.277,140.278 474.277,138.611 478.5,137.5C 478.405,141.225 478.238,144.891 478,148.5C 481.082,150.625 484.249,152.625 487.5,154.5C 483.752,157.041 479.752,159.041 475.5,160.5 Z"/></g>
<g><path style="opacity:1" fill="#fcc850" d="M 215.5,163.5 C 222.982,164.492 230.648,164.825 238.5,164.5C 238.5,181.5 238.5,198.5 238.5,215.5C 217.833,215.5 197.167,215.5 176.5,215.5C 176.5,190.167 176.5,164.833 176.5,139.5C 189.5,139.5 202.5,139.5 215.5,139.5C 215.5,147.5 215.5,155.5 215.5,163.5 Z"/></g>
<g><path style="opacity:1" fill="#1376b3" d="M 436.5,143.5 C 441.179,143.334 445.845,143.501 450.5,144C 453.726,145.106 456.393,146.939 458.5,149.5C 457.783,151.717 456.283,153.051 454,153.5C 444.03,147.989 436.03,149.989 430,159.5C 427.811,170.808 432.311,177.475 443.5,179.5C 447.884,179.057 451.717,177.39 455,174.5C 456.653,170.882 458.153,167.215 459.5,163.5C 461.409,162.652 463.409,162.318 465.5,162.5C 464.558,180.272 455.225,188.106 437.5,186C 425.435,180.704 420.601,171.538 423,158.5C 423.892,155.048 425.558,152.048 428,149.5C 430.736,147.248 433.569,145.248 436.5,143.5 Z"/></g>
<g><path style="opacity:1" fill="#778fa2" d="M 267.5,156.5 C 307.167,156.5 346.833,156.5 386.5,156.5C 386.5,157.167 386.167,157.5 385.5,157.5C 346.33,157.168 307.33,157.501 268.5,158.5C 267.662,158.158 267.328,157.492 267.5,156.5 Z"/></g>
<g><path style="opacity:1" fill="#064465" d="M 385.5,157.5 C 385.198,165.681 386.198,173.681 388.5,181.5C 359.5,181.5 330.5,181.5 301.5,181.5C 299.693,177.886 297.86,174.22 296,170.5C 294.833,168 293,166.167 290.5,165C 284.5,164.333 278.5,164.333 272.5,165C 271.956,165.717 271.289,166.217 270.5,166.5C 268.96,164.162 268.294,161.495 268.5,158.5C 307.33,157.501 346.33,157.168 385.5,157.5 Z"/></g>
<g><path style="opacity:1" fill="#dbbb62" d="M 215.5,163.5 C 223.5,163.5 231.5,163.5 239.5,163.5C 239.83,181.008 239.497,198.341 238.5,215.5C 238.5,198.5 238.5,181.5 238.5,164.5C 230.648,164.825 222.982,164.492 215.5,163.5 Z"/></g>
<g><path style="opacity:1" fill="#5c748d" d="M 301.5,181.5 C 291.167,181.5 280.833,181.5 270.5,181.5C 270.5,176.5 270.5,171.5 270.5,166.5C 271.289,166.217 271.956,165.717 272.5,165C 278.5,164.333 284.5,164.333 290.5,165C 293,166.167 294.833,168 296,170.5C 297.86,174.22 299.693,177.886 301.5,181.5 Z"/></g>
<g><path style="opacity:1" fill="#2178b0" d="M 441.5,155.5 C 443.288,155.215 444.955,155.548 446.5,156.5C 443.914,158.043 441.414,159.709 439,161.5C 437.33,166.501 438.996,169.501 444,170.5C 446.88,169.456 449.713,168.623 452.5,168C 447.633,174.693 442.133,175.193 436,169.5C 433.654,163.192 435.487,158.526 441.5,155.5 Z"/></g>
<g><path style="opacity:1" fill="#1c78b1" d="M 215.5,203.5 C 215.56,204.043 215.893,204.376 216.5,204.5C 217.822,195.342 217.822,186.342 216.5,177.5C 216.249,175.83 215.582,174.33 214.5,173C 217.76,172.216 220.927,172.383 224,173.5C 224.667,184.5 224.667,195.5 224,206.5C 218.25,207.641 212.416,207.807 206.5,207C 204.714,206.215 203.214,205.049 202,203.5C 200.586,196.215 200.253,188.882 201,181.5C 204.333,184.833 207.667,188.167 211,191.5C 211.167,190.833 211.333,190.167 211.5,189.5C 207.92,184.414 203.754,179.747 199,175.5C 198.333,184.5 198.333,193.5 199,202.5C 199.273,204.329 200.107,205.829 201.5,207C 197.683,208.023 194.183,207.523 191,205.5C 190.333,194.833 190.333,184.167 191,173.5C 212.372,167.876 220.039,175.876 214,197.5C 210.667,194.167 207.333,190.833 204,187.5C 203.833,188.167 203.667,188.833 203.5,189.5C 207.117,194.454 211.117,199.121 215.5,203.5 Z"/></g>
<g><path style="opacity:1" fill="#5486a0" d="M 226.5,172.5 C 228.484,172.383 230.15,173.05 231.5,174.5C 229.922,175.072 228.422,175.406 227,175.5C 226.517,174.552 226.351,173.552 226.5,172.5 Z"/></g>
<g><path style="opacity:1" fill="#012c52" d="M 143.5,174.5 C 144.63,183.177 146.463,191.844 149,200.5C 162.733,230.12 185.9,243.287 218.5,240C 249.462,232.542 266.795,213.042 270.5,181.5C 280.833,181.5 291.167,181.5 301.5,181.5C 330.5,181.5 359.5,181.5 388.5,181.5C 393.405,196.736 402.739,208.402 416.5,216.5C 413.359,230.37 410.026,244.204 406.5,258C 406.667,259.167 406.833,260.333 407,261.5C 416.364,270.53 425.364,279.863 434,289.5C 434.5,330.499 434.667,371.499 434.5,412.5C 433.501,372.003 433.168,331.337 433.5,290.5C 389.833,290.5 346.167,290.5 302.5,290.5C 289.833,290.5 277.167,290.5 264.5,290.5C 264.672,289.508 264.338,288.842 263.5,288.5C 263.737,287.209 263.404,286.209 262.5,285.5C 256.905,272.1 246.738,265.1 232,264.5C 217.716,265.049 207.549,271.715 201.5,284.5C 200.662,284.842 200.328,285.508 200.5,286.5C 199.596,287.209 199.263,288.209 199.5,289.5C 176.575,290.489 153.575,290.822 130.5,290.5C 130.832,331.337 130.499,372.003 129.5,412.5C 129.333,371.499 129.5,330.499 130,289.5C 139,279.833 148,270.167 157,260.5C 157.167,259.5 157.333,258.5 157.5,257.5C 151.397,233.817 145.23,210.15 139,186.5C 137.976,181.548 139.476,177.548 143.5,174.5 Z"/></g>
<g><path style="opacity:1" fill="#9da976" d="M 216.5,177.5 C 217.822,186.342 217.822,195.342 216.5,204.5C 215.893,204.376 215.56,204.043 215.5,203.5C 216.493,195.016 216.826,186.349 216.5,177.5 Z"/></g>
<g><path style="opacity:1" fill="#fbc750" d="M 326.5,197.5 C 350.158,194.358 365.658,204.025 373,226.5C 375.88,246.904 368.047,261.404 349.5,270C 332.885,275.127 318.719,271.294 307,258.5C 294.61,239.787 296.11,222.287 311.5,206C 316.27,202.619 321.27,199.786 326.5,197.5 Z"/></g>
<g><path style="opacity:1" fill="#568e96" d="M 334.5,209.5 C 335.5,209.5 336.5,209.5 337.5,209.5C 337.5,211.5 337.5,213.5 337.5,215.5C 336.5,215.5 335.5,215.5 334.5,215.5C 334.5,213.5 334.5,211.5 334.5,209.5 Z"/></g>
<g><path style="opacity:1" fill="#207aae" d="M 350.5,215.5 C 351.756,215.461 352.756,215.961 353.5,217C 352.315,218.353 350.981,219.52 349.5,220.5C 348.692,220.192 348.025,219.692 347.5,219C 348.71,217.961 349.71,216.794 350.5,215.5 Z"/></g>
<g><path style="opacity:1" fill="#0085a1" d="M 173.5,136.5 C 173.5,163.833 173.5,191.167 173.5,218.5C 196.5,218.5 219.5,218.5 242.5,218.5C 219.339,219.498 196.006,219.831 172.5,219.5C 172.169,191.662 172.502,163.995 173.5,136.5 Z"/></g>
<g><path style="opacity:1" fill="#0472b7" d="M 320.5,215.5 C 323.016,216.6 324.016,218.267 323.5,220.5C 320.922,219.358 319.922,217.691 320.5,215.5 Z"/></g>
<g><path style="opacity:1" fill="#0f76b3" d="M 332.5,218.5 C 345.196,218.026 350.696,224.026 349,236.5C 346.162,240.162 343.995,244.162 342.5,248.5C 338.445,248.824 334.445,248.491 330.5,247.5C 328.527,244.36 326.36,241.36 324,238.5C 321.069,229.364 323.902,222.698 332.5,218.5 Z"/></g>
<g><path style="opacity:1" fill="#efc556" d="M 331.5,221.5 C 333.288,221.215 334.955,221.548 336.5,222.5C 330.427,223.739 326.927,227.406 326,233.5C 325.333,231.833 325.333,230.167 326,228.5C 327.666,226.004 329.5,223.671 331.5,221.5 Z"/></g>
<g><path style="opacity:1" fill="#749e83" d="M 313.5,231.5 C 315.265,230.539 317.265,230.205 319.5,230.5C 319.737,231.791 319.404,232.791 318.5,233.5C 317.448,231.744 315.781,231.077 313.5,231.5 Z"/></g>
<g><path style="opacity:1" fill="#3c7aad" d="M 353.5,230.5 C 355.167,230.5 356.833,230.5 358.5,230.5C 358.5,231.5 358.5,232.5 358.5,233.5C 356.833,233.5 355.167,233.5 353.5,233.5C 353.5,232.5 353.5,231.5 353.5,230.5 Z"/></g>
<g><path style="opacity:1" fill="#0476b2" d="M 313.5,231.5 C 315.781,231.077 317.448,231.744 318.5,233.5C 316.219,233.923 314.552,233.256 313.5,231.5 Z"/></g>
<g><path style="opacity:1" fill="#247aae" d="M 322.5,243.5 C 323.478,243.811 324.145,244.478 324.5,245.5C 323.52,246.981 322.353,248.315 321,249.5C 320.308,248.975 319.808,248.308 319.5,247.5C 320.524,246.148 321.524,244.815 322.5,243.5 Z"/></g>
<g><path style="opacity:1" fill="#2275b4" d="M 348.5,243.5 C 350.074,243.937 351.241,244.937 352,246.5C 352.688,247.332 352.521,247.998 351.5,248.5C 348.922,247.358 347.922,245.691 348.5,243.5 Z"/></g>
<g><path style="opacity:1" fill="#1777b1" d="M 330.5,249.5 C 334.5,249.5 338.5,249.5 342.5,249.5C 343.549,255.093 341.383,258.426 336,259.5C 331.018,258.101 329.185,254.768 330.5,249.5 Z"/></g>
<g><path style="opacity:1" fill="#fcc750" d="M 262.5,285.5 C 241.993,285.83 221.66,285.497 201.5,284.5C 207.549,271.715 217.716,265.049 232,264.5C 246.738,265.1 256.905,272.1 262.5,285.5 Z"/></g>
<g><path style="opacity:1" fill="#dca847" d="M 201.5,284.5 C 221.66,285.497 241.993,285.83 262.5,285.5C 263.404,286.209 263.737,287.209 263.5,288.5C 242.673,289.497 221.673,289.831 200.5,289.5C 200.5,288.5 200.5,287.5 200.5,286.5C 200.328,285.508 200.662,284.842 201.5,284.5 Z"/></g>
<g><path style="opacity:1" fill="#b4914e" d="M 200.5,286.5 C 200.5,287.5 200.5,288.5 200.5,289.5C 221.673,289.831 242.673,289.497 263.5,288.5C 264.338,288.842 264.672,289.508 264.5,290.5C 263.5,290.5 262.5,290.5 261.5,290.5C 240.66,290.831 219.993,290.497 199.5,289.5C 199.263,288.209 199.596,287.209 200.5,286.5 Z"/></g>
<g><path style="opacity:1" fill="#064566" d="M 199.5,289.5 C 219.993,290.497 240.66,290.831 261.5,290.5C 261.075,297.615 261.575,304.615 263,311.5C 263.833,312.333 264.667,313.167 265.5,314C 276.167,314.667 286.833,314.667 297.5,314C 299.815,312.891 301.315,311.057 302,308.5C 302.499,302.509 302.666,296.509 302.5,290.5C 346.167,290.5 389.833,290.5 433.5,290.5C 433.168,331.337 433.501,372.003 434.5,412.5C 417.338,413.662 400.005,413.829 382.5,413C 380.088,409.01 378.088,404.843 376.5,400.5C 375.866,397.357 374.2,394.857 371.5,393C 363.919,388.876 355.919,385.876 347.5,384C 303.491,375.334 259.491,375.334 215.5,384C 208.618,385.738 201.952,388.072 195.5,391C 191.492,393.163 188.826,396.33 187.5,400.5C 185.513,404.473 183.513,408.473 181.5,412.5C 164.005,413.827 146.671,413.827 129.5,412.5C 130.499,372.003 130.832,331.337 130.5,290.5C 153.575,290.822 176.575,290.489 199.5,289.5 Z"/></g>
<g><path style="opacity:1" fill="#5b738d" d="M 261.5,290.5 C 262.5,290.5 263.5,290.5 264.5,290.5C 277.167,290.5 289.833,290.5 302.5,290.5C 302.666,296.509 302.499,302.509 302,308.5C 301.315,311.057 299.815,312.891 297.5,314C 286.833,314.667 276.167,314.667 265.5,314C 264.667,313.167 263.833,312.333 263,311.5C 261.575,304.615 261.075,297.615 261.5,290.5 Z"/></g>
<g><path style="opacity:1" fill="#fac650" d="M 281.5,343.5 C 279.5,343.5 278.5,344.5 278.5,346.5C 275.215,346.731 272.715,345.397 271,342.5C 269.611,344.227 267.944,345.561 266,346.5C 262.02,344.549 259.686,341.549 259,337.5C 261.472,335.702 263.139,333.368 264,330.5C 265.319,328.513 267.152,327.346 269.5,327C 273.819,326.095 278.152,325.762 282.5,326C 283.357,326.689 284.023,327.522 284.5,328.5C 282.5,330.833 280.5,333.167 278.5,335.5C 279.833,337.167 281.167,338.833 282.5,340.5C 281.873,341.417 281.539,342.417 281.5,343.5 Z"/></g>
<g><path style="opacity:1" fill="#fac750" d="M 278.5,346.5 C 279.833,345.833 280.833,344.833 281.5,343.5C 283.797,341.706 285.963,339.706 288,337.5C 287.642,329.36 291.475,325.36 299.5,325.5C 299.067,328.285 297.734,330.619 295.5,332.5C 296.54,334.375 298.04,335.708 300,336.5C 302.019,334.757 304.186,333.59 306.5,333C 306.929,340.894 302.929,344.561 294.5,344C 287.5,351 280.5,358 273.5,365C 267.673,366.502 265.506,364.336 267,358.5C 271.086,354.584 274.919,350.584 278.5,346.5 Z"/></g>
<g><path style="opacity:1" fill="#3c4e65" d="M 281.5,343.5 C 280.833,344.833 279.833,345.833 278.5,346.5C 278.5,344.5 279.5,343.5 281.5,343.5 Z"/></g>
<g><path style="opacity:1" fill="#f7c451" d="M 290.5,349.5 C 294.402,351.893 297.902,354.893 301,358.5C 301.993,364.502 299.493,366.668 293.5,365C 290.5,362 287.5,359 284.5,356C 286.706,353.963 288.706,351.797 290.5,349.5 Z"/></g>
<g><path style="opacity:1" fill="#204366" d="M 269.5,359.5 C 270.5,359.5 271.5,359.5 272.5,359.5C 272.5,360.5 272.5,361.5 272.5,362.5C 271.5,362.5 270.5,362.5 269.5,362.5C 269.5,361.5 269.5,360.5 269.5,359.5 Z"/></g>
<g><path style="opacity:1" fill="#002b51" d="M 376.5,400.5 C 313.5,400.5 250.5,400.5 187.5,400.5C 188.826,396.33 191.492,393.163 195.5,391C 201.952,388.072 208.618,385.738 215.5,384C 259.491,375.334 303.491,375.334 347.5,384C 355.919,385.876 363.919,388.876 371.5,393C 374.2,394.857 375.866,397.357 376.5,400.5 Z"/></g>
</svg>
